<svg width="25" height="25" viewBox="0 0 25 25" fill="none" xmlns="http://www.w3.org/2000/svg">
<path fill-rule="evenodd" clip-rule="evenodd" d="M21.4974 16.4127C18.8594 13.2127 17.5444 13.4997 16.0984 14.2027C15.0974 14.6887 14.2334 15.1107 11.9874 12.8637C9.74141 10.6167 10.1624 9.75366 10.6484 8.75466C11.3534 7.30766 11.6394 5.98966 8.43641 3.35266C7.67341 2.72766 6.84141 2.48766 5.97541 2.65566C4.14241 2.99866 2.84741 5.03866 2.84941 5.03866C2.03741 6.17466 0.925409 9.59066 8.09241 16.7587C12.8064 21.4737 15.8974 22.6047 17.7734 22.6047C18.7504 22.6047 19.3964 22.2987 19.7704 22.0297C19.7914 22.0177 21.8494 20.7427 22.1964 18.8737C22.3584 18.0047 22.1234 17.1777 21.4974 16.4127Z" fill="black"/>
</svg>
