<svg width="25" height="25" viewBox="0 0 25 25" fill="none" xmlns="http://www.w3.org/2000/svg">
<path fill-rule="evenodd" clip-rule="evenodd" d="M15.181 15.4578C15.035 15.6038 14.843 15.6778 14.651 15.6778C14.458 15.6778 14.267 15.6038 14.12 15.4578L12.247 13.5848L10.38 15.4518C10.234 15.5988 10.042 15.6718 9.85 15.6718C9.659 15.6718 9.466 15.5988 9.32 15.4518C9.027 15.1588 9.027 14.6848 9.32 14.3918L11.186 12.5238L9.32 10.6578C9.027 10.3648 9.027 9.89079 9.32 9.59779C9.613 9.30479 10.087 9.30479 10.38 9.59779L12.246 11.4638L14.11 9.59979C14.403 9.30679 14.877 9.30679 15.17 9.59979C15.463 9.89279 15.463 10.3668 15.17 10.6598L13.307 12.5238L15.181 14.3968C15.474 14.6898 15.474 15.1648 15.181 15.4578ZM12.25 2.78479C5.052 2.78479 2.5 5.33679 2.5 12.5348C2.5 19.7328 5.052 22.2848 12.25 22.2848C19.449 22.2848 22 19.7328 22 12.5348C22 5.33679 19.449 2.78479 12.25 2.78479Z" fill="black"/>
</svg>
