<svg width="25" height="25" viewBox="0 0 25 25" fill="none" xmlns="http://www.w3.org/2000/svg">
<path fill-rule="evenodd" clip-rule="evenodd" d="M3.01836 16.4499C7.14645 16.8473 7.87335 15.7145 8.39873 14.1949C8.76289 13.1435 9.07543 12.2341 12.2525 12.2348C15.4295 12.2355 15.742 13.1435 16.1048 14.1935C16.6295 15.7152 17.3592 16.8494 21.4887 16.4492C22.4702 16.3516 23.2282 15.933 23.7217 15.2019C24.7753 13.6632 24.2485 11.305 24.2471 11.3064C24.018 9.92896 22.3888 6.72718 12.2525 6.72648C5.58515 6.72577 2.59975 8.1117 1.27322 9.43823C0.582374 10.1291 0.341959 10.8022 0.267712 11.2569C0.261347 11.2802 -0.292316 13.637 0.7839 15.204C1.28382 15.933 2.03477 16.3516 3.01836 16.4499Z" fill="black"/>
</svg>
