<svg width="25" height="24" viewBox="0 0 25 24" fill="none" xmlns="http://www.w3.org/2000/svg">
<path fill-rule="evenodd" clip-rule="evenodd" d="M22.4202 11.59L19.4922 8.67395C19.1982 8.38195 18.7242 8.38195 18.4322 8.67595C18.1402 8.96995 18.1412 9.44395 18.4342 9.73595L20.0742 11.37H17.1392C17.1492 11.87 17.1492 12.37 17.1392 12.87H20.0762L18.4342 14.506C18.1412 14.798 18.1402 15.273 18.4322 15.567C18.5782 15.714 18.7712 15.787 18.9632 15.787C19.1542 15.787 19.3462 15.714 19.4922 15.569L22.4202 12.652C22.5622 12.512 22.6412 12.32 22.6412 12.121C22.6412 11.922 22.5622 11.731 22.4202 11.59Z" fill="black"/>
<path fill-rule="evenodd" clip-rule="evenodd" d="M8.88889 12.1201C8.88889 11.7101 9.21889 11.3701 9.63889 11.3701L17.1392 11.37C17.1292 10.11 17.0589 8.85012 16.9589 7.59012V7.58012C16.5889 3.55012 14.7589 2.25012 9.45889 2.25012C1.85889 2.25012 1.85889 5.10012 1.85889 12.0001C1.85889 18.9001 1.85889 21.7501 9.45889 21.7501C14.7589 21.7501 16.5889 20.4501 16.9589 16.4101C17.0589 15.2401 17.1192 14.06 17.1392 12.87L9.63889 12.8701C9.21889 12.8701 8.88889 12.5401 8.88889 12.1201Z" fill="black"/>
</svg>
