<svg width="25" height="24" viewBox="0 0 25 24" fill="none" xmlns="http://www.w3.org/2000/svg">
<path fill-rule="evenodd" clip-rule="evenodd" d="M17.26 8.67412C15.614 8.67412 14.27 7.34012 14.27 5.69412V3.65212L19.552 8.67412H17.26ZM14.088 16.2921H8.68898C8.27498 16.2921 7.93898 15.9561 7.93898 15.5421C7.93898 15.1281 8.27498 14.7921 8.68898 14.7921H14.088C14.503 14.7921 14.838 15.1281 14.838 15.5421C14.838 15.9561 14.503 16.2921 14.088 16.2921ZM8.68698 10.7811H12.043C12.457 10.7811 12.793 11.1171 12.793 11.5311C12.793 11.9461 12.457 12.2811 12.043 12.2811H8.68698C8.27298 12.2811 7.93698 11.9461 7.93698 11.5311C7.93698 11.1171 8.27298 10.7811 8.68698 10.7811ZM20.955 8.85012C20.955 8.81012 20.955 8.78012 20.945 8.74012C20.915 8.56012 20.885 8.38012 20.855 8.21012C20.835 8.10012 20.785 8.01012 20.705 7.93012L15.035 2.53012C14.965 2.46012 14.865 2.41012 14.765 2.40012C14.595 2.38012 14.415 2.36012 14.235 2.34012C14.205 2.33012 14.165 2.33012 14.135 2.33012C13.555 2.28012 12.915 2.25012 12.245 2.25012C5.68498 2.25012 3.35498 4.80012 3.35498 12.0001C3.35498 19.1901 5.68498 21.7501 12.245 21.7501C18.815 21.7501 21.145 19.1901 21.145 12.0001C21.145 10.8001 21.085 9.76012 20.955 8.85012Z" fill="black"/>
</svg>
