<svg width="25" height="24" viewBox="0 0 25 24" fill="none" xmlns="http://www.w3.org/2000/svg">
<path fill-rule="evenodd" clip-rule="evenodd" d="M21.7158 2.74143C21.6688 2.65343 21.5978 2.58143 21.5098 2.53443C19.4238 1.42443 6.94482 5.29243 3.71682 7.15443C2.87582 7.63943 2.50082 8.20943 2.60382 8.84543C2.90082 10.6874 7.86382 12.0834 10.5568 12.7084L15.6138 7.65243C15.9068 7.35943 16.3818 7.35943 16.6748 7.65243C16.9678 7.94543 16.9678 8.42043 16.6748 8.71343L11.5688 13.8174C12.2098 16.5384 13.5908 21.3534 15.4038 21.6454C15.4718 21.6564 15.5398 21.6624 15.6068 21.6624C16.1608 21.6624 16.6608 21.2824 17.0938 20.5324C18.9558 17.3074 22.8268 4.83043 21.7158 2.74143Z" fill="black"/>
</svg>
