<svg width="25" height="25" viewBox="0 0 25 25" fill="none" xmlns="http://www.w3.org/2000/svg">
<path fill-rule="evenodd" clip-rule="evenodd" d="M22.1514 7.4698C21.3714 6.6298 18.9714 8.1398 17.6114 9.0998C17.8414 10.0898 17.9514 11.2398 17.9514 12.5398C17.9514 13.8298 17.8414 14.9598 17.6214 15.9498C18.7114 16.7198 20.4914 17.8498 21.5314 17.8498C21.7914 17.8498 22.0114 17.7798 22.1514 17.6198C23.0814 16.6298 23.0814 8.4698 22.1514 7.4698Z" fill="black"/>
<path fill-rule="evenodd" clip-rule="evenodd" d="M9.06137 5.1098C3.59137 5.1098 1.65137 7.0598 1.65137 12.5398C1.65137 18.0198 3.59137 19.9598 9.06137 19.9598C14.5214 19.9598 16.4514 18.0198 16.4514 12.5398C16.4514 7.0598 14.5214 5.1098 9.06137 5.1098Z" fill="black"/>
</svg>
