<svg width="25" height="24" viewBox="0 0 25 24" fill="none" xmlns="http://www.w3.org/2000/svg">
<path fill-rule="evenodd" clip-rule="evenodd" d="M15.4267 12.8708C15.2387 12.7878 15.0187 12.8288 14.8727 12.9748L10.3637 17.4848C10.2587 17.5908 10.2057 17.7378 10.2197 17.8868C10.2337 18.0348 10.3137 18.1688 10.4367 18.2528C10.9817 18.6208 11.7117 19.0278 12.5447 19.0278C12.9797 19.0278 13.4437 18.9168 13.9237 18.6308C15.1067 17.7898 15.6117 16.3088 15.7257 13.3488C15.7347 13.1418 15.6147 12.9528 15.4267 12.8708Z" fill="black"/>
<path fill-rule="evenodd" clip-rule="evenodd" d="M20.4628 3.79751C20.1698 3.50451 19.6948 3.50451 19.4018 3.79751L15.4428 7.75751C15.1728 6.46151 14.6948 5.64651 13.8878 5.07751C12.2038 4.08351 10.6588 5.26951 9.53076 6.13451C9.06976 6.48851 8.63476 6.82251 8.30676 6.93051C7.85776 7.07751 7.46876 7.12451 7.09276 7.17051C6.43376 7.24951 5.75176 7.33251 5.00676 7.96551C3.79876 8.99051 3.81076 10.6575 3.81876 11.8665C3.81076 13.0835 3.79876 14.7505 5.00876 15.7785C5.60376 16.2795 6.15676 16.4295 6.69076 16.5095L4.05776 19.1425C3.76476 19.4355 3.76476 19.9095 4.05776 20.2025C4.20476 20.3495 4.39676 20.4225 4.58776 20.4225C4.77976 20.4225 4.97176 20.3495 5.11876 20.2025L20.4628 4.85851C20.7558 4.56551 20.7558 4.09051 20.4628 3.79751Z" fill="black"/>
</svg>
